<svg width="20" height="20" viewBox="0 0 20 20" fill="none" xmlns="http://www.w3.org/2000/svg">
<path d="M20.0002 10.2249C20.0002 9.56659 19.9406 8.94159 19.8384 8.33325H10.2173V12.0916H15.726C15.4791 13.3249 14.7554 14.3666 13.6826 15.0749V17.5749H16.9691C18.8933 15.8333 20.0002 13.2666 20.0002 10.2249Z" fill="#4285F4"/>
<path d="M10.2169 20.0001C12.9755 20.0001 15.2829 19.1001 16.9687 17.5751L13.6822 15.0751C12.7627 15.6751 11.5962 16.0418 10.2169 16.0418C7.55196 16.0418 5.29568 14.2834 4.48682 11.9084H1.09814V14.4834C2.77545 17.7501 6.22373 20.0001 10.2169 20.0001Z" fill="#34A853"/>
<path d="M4.48702 11.9083C4.27416 11.3083 4.16347 10.6666 4.16347 9.99993C4.16347 9.33327 4.28267 8.6916 4.48702 8.0916V5.5166H1.09834C0.40017 6.8666 0 8.38327 0 9.99993C0 11.6166 0.40017 13.1333 1.09834 14.4833L4.48702 11.9083Z" fill="#FBBC05"/>
<path d="M10.2169 3.95833C11.7239 3.95833 13.0692 4.46667 14.1335 5.45833L17.0454 2.60833C15.2829 0.991667 12.9755 0 10.2169 0C6.22373 0 2.77545 2.25 1.09814 5.51667L4.48682 8.09167C5.29568 5.71667 7.55196 3.95833 10.2169 3.95833Z" fill="#EA4335"/>
</svg>
